<svg xmlns="http://www.w3.org/2000/svg" width="760" height="330" viewBox="0 0 760 330" font-family="Menlo, 'Hiragino Sans', monospace">
  <rect width="760" height="330" fill="#0d1117"/>
  <defs>
    <marker id="ar4" markerWidth="8" markerHeight="8" refX="7" refY="4" orient="auto">
      <path d="M0,0 L8,4 L0,8 z" fill="#58a6ff"/>
    </marker>
  </defs>
  <!-- row 1 -->
  <rect x="290" y="20" width="130" height="40" rx="8" fill="#1f6feb"/>
  <text x="355" y="44" font-size="12" fill="#fff" text-anchor="middle">現在患者</text>
  <!-- row 2 -->
  <rect x="140" y="96" width="130" height="40" rx="8" fill="#161b22" stroke="#30363d"/>
  <text x="205" y="120" font-size="12" fill="#e6edf3" text-anchor="middle">直近7日</text>
  <rect x="440" y="96" width="140" height="40" rx="8" fill="#161b22" stroke="#30363d"/>
  <text x="510" y="120" font-size="12" fill="#e6edf3" text-anchor="middle">患者自身の過去</text>
  <!-- row 3 -->
  <rect x="140" y="172" width="130" height="40" rx="8" fill="#8957e5"/>
  <text x="205" y="196" font-size="12" fill="#fff" text-anchor="middle">変化を比較</text>
  <rect x="440" y="172" width="140" height="40" rx="8" fill="#161b22" stroke="#30363d"/>
  <text x="510" y="188" font-size="11" fill="#e6edf3" text-anchor="middle">過去症例の統計</text>
  <text x="510" y="204" font-size="10" fill="#8b949e" text-anchor="middle">→ 参考情報</text>
  <!-- row 4 -->
  <rect x="290" y="236" width="130" height="40" rx="8" fill="#238636"/>
  <text x="355" y="260" font-size="12" fill="#fff" text-anchor="middle">確認候補</text>
  <!-- row 5: candidates -->
  <rect x="60" y="296" width="190" height="28" rx="6" fill="#161b22" stroke="#30363d"/>
  <text x="155" y="314" font-size="10" fill="#e6edf3" text-anchor="middle">薬剤変更後の再評価記録</text>
  <rect x="280" y="296" width="130" height="28" rx="6" fill="#161b22" stroke="#30363d"/>
  <text x="345" y="314" font-size="10" fill="#e6edf3" text-anchor="middle">未解決事項</text>
  <rect x="440" y="296" width="240" height="28" rx="6" fill="#161b22" stroke="#30363d"/>
  <text x="560" y="314" font-size="10" fill="#e6edf3" text-anchor="middle">通常より増えた薬剤変更・連携</text>
  <!-- edges -->
  <line x1="330" y1="60" x2="225" y2="92" stroke="#58a6ff" stroke-width="1.4" marker-end="url(#ar4)"/>
  <line x1="385" y1="60" x2="495" y2="92" stroke="#58a6ff" stroke-width="1.4" marker-end="url(#ar4)"/>
  <line x1="205" y1="136" x2="205" y2="168" stroke="#58a6ff" stroke-width="1.4" marker-end="url(#ar4)"/>
  <line x1="510" y1="136" x2="510" y2="168" stroke="#58a6ff" stroke-width="1.4" marker-end="url(#ar4)"/>
  <line x1="270" y1="196" x2="330" y2="232" stroke="#58a6ff" stroke-width="1.4" marker-end="url(#ar4)"/>
  <line x1="480" y1="212" x2="390" y2="240" stroke="#58a6ff" stroke-width="1.4" marker-end="url(#ar4)"/>
  <line x1="330" y1="276" x2="180" y2="292" stroke="#58a6ff" stroke-width="1.4" marker-end="url(#ar4)"/>
  <line x1="355" y1="276" x2="345" y2="292" stroke="#58a6ff" stroke-width="1.4" marker-end="url(#ar4)"/>
  <line x1="385" y1="276" x2="540" y2="292" stroke="#58a6ff" stroke-width="1.4" marker-end="url(#ar4)"/>
</svg>
